<?xml version="1.0" encoding="UTF-8"?>
<svg id="Calque_2" data-name="Calque 2" xmlns="http://www.w3.org/2000/svg" xmlns:xlink="http://www.w3.org/1999/xlink" viewBox="0 0 942.51 942.51">
  <defs>
    <style>
      .cls-1 {
        fill: #fff;
      }

      .cls-1, .cls-2 {
        stroke-width: 0px;
      }

      .cls-2 {
        fill: url(#Dégradé_sans_nom_22);
      }
    </style>
    <linearGradient id="Dégradé_sans_nom_22" data-name="Dégradé sans nom 22" x1="471.25" y1="0" x2="471.25" y2="942.51" gradientUnits="userSpaceOnUse">
      <stop offset="0" stop-color="#f31cd0"/>
      <stop offset=".5" stop-color="#f91968"/>
      <stop offset="1" stop-color="#fc7b52"/>
    </linearGradient>
  </defs>
  <g id="logo">
    <g>
      <rect class="cls-2" width="942.51" height="942.51" rx="244.81" ry="244.81"/>
      <g>
        <path class="cls-1" d="M349.14,470.98c.16-67.5,54.61-122.04,122.05-122.24,67.34-.2,122.64,55.62,122.31,123.46-.32,67.03-55.97,122.05-122.91,121.52-67.61-.53-121.61-55.1-121.45-122.73Z"/>
        <path class="cls-1" d="M272.37,173.36c49.48-15.7,94.96-12.19,133.14,27.91,11.04,11.59,22.84,22.45,33.84,34.07,12.77,13.51,12.66,25.35-.7,38.61-55.62,55.22-111.4,110.28-167.24,165.28-11.41,11.23-21.47,13.79-31.51,4.86-23.47-20.89-48.23-41-63.43-69.45-16.21-30.34-15.51-62.08-6.67-94.35,1.74-6.35,4.75-8.72,11.86-9.06,45.46-2.12,75.19-25.8,86.99-69.22,2.43-8.93,2.47-18.52,3.71-28.65Z"/>
        <path class="cls-1" d="M172.27,669.74c-15.14-48.03-11.87-92.84,25.9-131.09,10.95-11.09,21.96-22.13,33.06-33.07,15.79-15.54,26.84-15.82,43.04-.08,25.3,24.57,50.22,49.53,75.2,74.43,29.35,29.24,58.6,58.58,87.87,87.9,15.23,15.25,15.37,26.56-.35,41.82-17.31,16.8-33.63,35.15-53.02,49.16-32.2,23.27-68.6,23.18-105.71,11.99-8.87-2.68-6.73-9.17-7.09-14.71-2.57-40.03-27.69-71.51-66.41-81.68-9.79-2.57-20.15-2.96-32.5-4.67Z"/>
        <path class="cls-1" d="M670.57,173.54c-.08,54.37,29.82,83.31,65.41,94.22,6.96,2.13,14.57,3.93,21.68,3.38,10.85-.85,13.98,4.48,16.22,13.56,11.5,46.5,3.08,87.59-31.8,121.92-10.52,10.36-20.84,20.92-31.36,31.29-14.44,14.24-26.66,14.43-41.57.38-8.35-7.87-16.27-16.2-24.42-24.3-46.23-45.98-92.5-91.92-138.69-137.93-16.63-16.57-16.77-28.13.06-44.64,16.36-16.04,31.84-33.49,50.22-46.86,35.03-25.48,74.02-23.93,114.24-11Z"/>
        <path class="cls-1" d="M778.69,624.21c-.31,3.99-.3,10.61-1.4,17.04-4.66,27.3-4.78,27.28-31.64,31.35-39.37,5.97-70.71,38.78-73.52,79.08-.94,13.57-5.37,19.84-18.95,22.6-42.52,8.65-80.62,1.66-112.76-28.84-12.78-12.13-25.03-24.83-37.1-37.68-12.73-13.55-12.63-25.38.5-38.51,55.38-55.38,110.87-110.66,166.49-165.8,13.13-13.02,26.08-13.31,38.49-.15,18.74,19.88,37.75,39.7,54.49,61.23,12.59,16.19,15.15,36.74,15.39,59.69Z"/>
        <path class="cls-1" d="M693.54,181.08c1.57-40.41,30.5-66.36,72.12-64.71,35.14,1.4,62.59,31.95,61.24,68.14-1.39,37.02-32.82,66.2-69.62,64.64-35.49-1.51-65.1-33.13-63.74-68.07Z"/>
        <path class="cls-1" d="M182.99,116.14c37.11.23,66.26,29.5,65.98,66.25-.28,36.42-30.29,66.58-66.46,66.77-37.55.21-67.25-30.12-66.95-68.38.28-36.65,29.73-64.88,67.43-64.65Z"/>
        <path class="cls-1" d="M181.24,826.36c-37.82-.46-66.12-29.76-65.55-67.87.54-36.1,31.07-65.1,68.07-64.67,36.14.42,65.56,31.14,65,67.88-.56,36.73-30.21,65.11-67.52,64.66Z"/>
        <path class="cls-1" d="M759.06,826.31c-37.16-.4-66.04-29.95-65.27-66.78.77-36.8,30.55-66.14,66.95-65.96,36.57.18,66.68,31.32,65.95,68.24-.73,37.01-29.99,64.92-67.63,64.51Z"/>
      </g>
    </g>
  </g>
</svg>