<?xml version="1.0" encoding="UTF-8"?>
<svg id="Calque_2" data-name="Calque 2" xmlns="http://www.w3.org/2000/svg" viewBox="0 0 1220.35 464.63">
  <defs>
    <style>
      .cls-1 {
        stroke-width: 0px;
      }
    </style>
  </defs>
  <g id="Calque_2-2" data-name="Calque 2">
    <g>
      <path class="cls-1" d="M551.57,309.7c3.72,7.51,6.82,13.77,10.33,20.85-27.69,21.21-57.25,33.27-91.25,31.65-26.79-1.28-45.17-19.79-40.3-45.68,3.95-20.99-4.07-32.11-18.93-42.22-11.23-7.64-22.81-14.78-34.23-22.14-1.59.64-3.18,1.28-4.78,1.92,3.08,18.52,5.69,37.13,9.62,55.47.83,3.89,6.83,9.91,9.86,9.58,18.51-2,16.79,13.59,23.57,23.49-28.81,16.71-58.25,24.06-89.9,18.55-26.78-4.66-41.47-25.18-42.82-58.93-.91-22.62-.62-45.3-.22-67.94.17-9.69-1.61-16.02-13.1-16.16-6.56-.08-13.08-2.12-19.66-2.73-26.82-2.5-25.02-1.51-36.79,21.63-17.91,35.21-36.73,70.27-58.73,103.01-17.7,26.34-46.21,39.34-78.21,40.81-29.35,1.34-53.36-10.69-67.66-36.76-15.19-27.7-8-55.17,7.7-79.86,30.51-47.96,104.81-75.85,131.77-80.56,26.96-4.72,44.55-1.78,53.6-32.33,9.05-30.63,20.23-60.64,29.34-91.25,3.47-11.64,3.72-24.24,6.13-41.23,26.97-1.6,57.62-4.66,88.29-4.9,35.25-.28,39.71,2.95,42.38,38.72,3.37,45.08,4.09,90.42,4.01,135.65-.03,16.09,5.63,23.93,19.85,29.45,16.82,6.53,32.89,14.99,51.07,23.44,3.46-14.04,7.11-27.67,10.15-41.43,12.95-58.63,29.16-116.78,25.53-177.84-.2-3.31,4.24-9.44,7.28-9.99,25.39-4.55,50.96-8.09,76.7-11.97,10.1,24.67,4.58,47.15.45,68.95-13.64,72.03-28.54,143.82-42.94,215.71-.54,2.7-1,5.43-1.28,8.16-2.2,21.99,2.55,25.94,23.6,19.67,2.58-.77,5.17-1.51,9.55-2.79ZM179.06,216.62c-50.06-2.93-102.66,29.55-120.22,69.49-8.51,19.34-5.32,42.43,6.93,50.26,12.03,7.68,31,3.83,44.7-15.01,23.74-32.64,44.45-67.47,68.6-104.73ZM282.2,184.18c.1-42.38,1.12-81.69-5.34-120.54-1.61-.09-3.21-.17-4.82-.26-11.3,37.77-22.6,75.53-34.41,115,15.12,1.97,28.48,3.7,44.57,5.8Z"/>
      <path class="cls-1" d="M844.42,338.71c-9.01,3.48-17.52,6.85-26.1,10.07-46.81,17.57-84.41-2.45-92.13-51.26-6.47-40.92-.36-80.02,25.42-114.58,25.16-33.74,63.61-46.14,104.34-34.59,11.54,3.27,24.58,2.3,36.86,1.74,15.95-.73,31.86-2.7,47.72-4.69,10.91-1.37,10.53,6.22,10.09,12.57-2.09,30.22-3.63,60.54-7.43,90.56-6.29,49.8-14.92,99.36-38.54,144.46-16.37,31.27-36.95,60.1-74.05,68.66-16.17,3.73-33.87,3.53-50.51,1.77-15.46-1.63-28.37-10.75-31.56-27.5-3.38-17.72,1.88-34.29,17.72-43.01,18.12-9.97,37.74-18.11,57.66-23.68,16.59-4.64,23.09-12.7,20.51-30.51ZM816.2,294.11c2.39,6.18,10.3,14.04,16.02,14.28,9.12.38,18.69-3.12,19.71-16.92,2.27-30.69,6.53-61.24,9.42-91.9.49-5.22-1.65-15.27-2.86-15.32-7.66-.28-16.55-.3-22.77,3.39-5.41,3.21-9.54,10.97-11.28,17.5-5.21,19.54-11.67,80.1-8.24,88.96ZM834.7,389.42c-17.04,5.89-30.8,9.58-43.56,15.46-8.24,3.8-15.4,12.59-8.32,21.14,3.43,4.15,15.34,5.15,21.34,2.64,15.12-6.32,25.3-18.42,30.54-39.24Z"/>
      <path class="cls-1" d="M1172.11,207.51c14.73-2.31,29.2-4.57,43.51-6.81,7.63,19.87,7.31,25.1-10.62,27.97-32.51,5.2-42.07,26.94-51.93,53.98-12.31,33.77-34.75,61.5-70.89,73.95-61.95,21.34-109.4-7.46-115.83-72.16-4.4-44.35,7.56-85.24,43.48-114.1,14.31-11.5,33.74-18.73,51.98-22.75,20.12-4.42,41.53-3.36,62.4-3.87,20.31-.5,32.15,7.65,38.75,26.89,3.72,10.83,5.6,22.29,9.14,36.89ZM1087.78,180.04c-4.31,1.54-6.44,1.93-8.14,3.01-1.82,1.16-3.84,2.67-4.74,4.53-17.34,35.8-24.84,73.25-14.61,112.28,4.36,16.65,19.19,21.31,34.46,11.64,23.62-14.96,34.98-38.09,41.34-67.03-44.2-.42-52.28-27.87-48.31-64.42Z"/>
      <path class="cls-1" d="M696.01,310.3c12.28,20.2,12.31,23.18-7.64,31.66-19.08,8.11-38.93,15.95-59.21,19.43-35.44,6.09-55.24-14.42-49.58-50.05,4.06-25.54,9.91-50.89,16.67-75.87,6.76-24.97,9.68-48.61-6.93-71.24-1.36-1.85,3.46-12.07,5.99-12.3,27.5-2.57,55.11-4.65,82.71-4.84,4.28-.03,12.31,10.12,12.28,15.52-.12,19.12-1.81,38.43-5.11,57.28-3.89,22.24-10.47,44.01-15.15,66.13-6.09,28.75-2.13,32.38,25.97,24.27Z"/>
      <path class="cls-1" d="M664.3,23.41c27.54.06,42.98,13.15,43.16,36.58.2,26-21.18,45.65-49.99,45.96-27.52.29-46.16-16.07-46.18-40.54-.02-25.09,21.42-42.07,53.01-42Z"/>
    </g>
  </g>
</svg>